<?xml version="1.0"?>
<svg xmlns="http://www.w3.org/2000/svg" xmlns:xlink="http://www.w3.org/1999/xlink" xmlns:svgjs="http://svgjs.com/svgjs" version="1.1" width="512" height="512" x="0" y="0" viewBox="0 0 512 512" style="enable-background:new 0 0 512 512" xml:space="preserve"><g transform="matrix(0.9,0,0,0.9,25.599999999999994,25.599999999999994)">
<polygon xmlns="http://www.w3.org/2000/svg" style="" points="476.69,97.103 512,61.793 0,61.793 35.31,97.103 " fill="#4398d1" data-original="#4398d1"/>
<polygon xmlns="http://www.w3.org/2000/svg" style="" points="476.69,97.103 476.69,379.586 512,414.897 512,61.793 " fill="#3e8cc7" data-original="#3e8cc7"/>
<rect xmlns="http://www.w3.org/2000/svg" x="35.31" y="97.103" style="" width="441.379" height="282.483" fill="#126099" data-original="#126099"/>
<polygon xmlns="http://www.w3.org/2000/svg" style="" points="476.69,143.801 123.586,379.586 476.69,379.586 " fill="#115991" data-original="#115991"/>
<g xmlns="http://www.w3.org/2000/svg">
	<polygon style="" points="35.31,97.103 0,61.793 0,414.897 35.31,379.586  " fill="#4398d1" data-original="#4398d1"/>
	<rect y="414.897" style="" width="512" height="35.31" fill="#4398d1" data-original="#4398d1"/>
</g>
<polygon xmlns="http://www.w3.org/2000/svg" style="" points="35.31,379.586 0,414.897 512,414.897 476.69,379.586 " fill="#3e8cc7" data-original="#3e8cc7"/>
<rect xmlns="http://www.w3.org/2000/svg" x="70.621" y="353.103" style="" width="132.414" height="61.793" fill="#c74436" data-original="#c74436"/>
<rect xmlns="http://www.w3.org/2000/svg" x="105.931" y="353.103" style="" width="61.793" height="61.793" fill="#de4c3c" data-original="#de4c3c"/>
<polygon xmlns="http://www.w3.org/2000/svg" style="" points="211.862,361.931 256,414.897 273.655,397.241 229.517,344.276 " fill="#ebebeb" data-original="#ebebeb"/>
<g xmlns="http://www.w3.org/2000/svg">
</g>
<g xmlns="http://www.w3.org/2000/svg">
</g>
<g xmlns="http://www.w3.org/2000/svg">
</g>
<g xmlns="http://www.w3.org/2000/svg">
</g>
<g xmlns="http://www.w3.org/2000/svg">
</g>
<g xmlns="http://www.w3.org/2000/svg">
</g>
<g xmlns="http://www.w3.org/2000/svg">
</g>
<g xmlns="http://www.w3.org/2000/svg">
</g>
<g xmlns="http://www.w3.org/2000/svg">
</g>
<g xmlns="http://www.w3.org/2000/svg">
</g>
<g xmlns="http://www.w3.org/2000/svg">
</g>
<g xmlns="http://www.w3.org/2000/svg">
</g>
<g xmlns="http://www.w3.org/2000/svg">
</g>
<g xmlns="http://www.w3.org/2000/svg">
</g>
<g xmlns="http://www.w3.org/2000/svg">
</g>
</g></svg>
